HIERARCHY
ROOT Hips
{
	OFFSET 0.0000 0.0000 0.0000
	CHANNELS 6 Xposition Yposition Zposition Zrotation Xrotation Yrotation
	JOINT Ab
	{
		OFFSET -0.0000 8.1305 -0.0000
		CHANNELS 3 Zrotation Xrotation Yrotation
		JOINT Chest
		{
			OFFSET -0.0000 26.2902 -0.0000
			CHANNELS 3 Zrotation Xrotation Yrotation
			JOINT Neck
			{
				OFFSET -0.0000 26.2902 0.0000
				CHANNELS 3 Zrotation Xrotation Yrotation
				JOINT Head
				{
					OFFSET -0.0000 10.8167 0.0000
					CHANNELS 3 Zrotation Xrotation Yrotation
					End Site
					{
						OFFSET -0.0000 16.7167 0.0000
					}
				}
			}
			JOINT LeftCollar
			{
				OFFSET -0.0000 26.2902 0.0000
				CHANNELS 3 Zrotation Xrotation Yrotation
				JOINT LeftShoulder
				{
					OFFSET 19.6667 -0.0000 0.0000
					CHANNELS 3 Zrotation Xrotation Yrotation
					JOINT LeftElbow
					{
						OFFSET 27.2190 0.0000 0.0000
						CHANNELS 3 Zrotation Xrotation Yrotation
						JOINT LeftWrist
						{
							OFFSET 30.7431 0.0000 0.0000
							CHANNELS 3 Zrotation Xrotation Yrotation
							End Site
							{
								OFFSET 0.0000 -14.7500 0.0000
							}
						}
					}
				}
			}
			JOINT RightCollar
			{
				OFFSET -0.0000 26.2902 0.0000
				CHANNELS 3 Zrotation Xrotation Yrotation
				JOINT RightShoulder
				{
					OFFSET -19.6667 0.0000 0.0000
					CHANNELS 3 Zrotation Xrotation Yrotation
					JOINT RightElbow
					{
						OFFSET -27.2190 0.0000 0.0000
						CHANNELS 3 Zrotation Xrotation Yrotation
						JOINT RightWrist
						{
							OFFSET -30.7431 0.0000 0.0000
							CHANNELS 3 Zrotation Xrotation Yrotation
							End Site
							{
								OFFSET -0.0000 -14.7500 0.0000
							}
						}
					}
				}
			}
		}
	}
	JOINT LeftHip
	{
		OFFSET 11.8000 0.0000 0.0000
		CHANNELS 3 Zrotation Xrotation Yrotation
		JOINT LeftKnee
		{
			OFFSET -0.0000 -39.7832 0.0000
			CHANNELS 3 Zrotation Xrotation Yrotation
			JOINT LeftAnkle
			{
				OFFSET -0.0000 -41.7317 0.0000
				CHANNELS 3 Zrotation Xrotation Yrotation
				End Site
				{
					OFFSET -0.0000 -4.9167 16.7167
				}
			}
		}
	}
	JOINT RightHip
	{
		OFFSET -11.8000 0.0000 0.0000
		CHANNELS 3 Zrotation Xrotation Yrotation
		JOINT RightKnee
		{
			OFFSET -0.0000 -39.7832 0.0000
			CHANNELS 3 Zrotation Xrotation Yrotation
			JOINT RightAnkle
			{
				OFFSET -0.0000 -41.7317 0.0000
				CHANNELS 3 Zrotation Xrotation Yrotation
				End Site
				{
					OFFSET -0.0000 -4.9167 16.7167
				}
			}
		}
	}
}
MOTION
Frames: 20
Frame Time: 0.010000
-19.2329 96.9608 176.8415 358.4889 357.6150 177.0661 358.0472 348.2808 0.1155 2.8212 10.4933 0.0550 357.0115 355.2428 2.8753 0.7831 3.4422 2.9769 339.5873 357.2940 15.0028 320.6395 59.9235 337.4680 8.7844 357.3783 326.7137 89.6171 355.3814 345.8575 27.8786 355.8616 343.5104 45.7624 44.4747 2.2972 339.6568 354.1567 31.7631 269.4281 355.0643 7.6512 356.1706 2.9629 1.3166 357.9867 8.0595 3.0259 355.0165 350.6940 16.9955 358.8383 5.9501 10.2715 6.3572 6.5207 7.6445 349.9224 343.2095 314.7391 
-19.2503 96.9599 176.8408 358.4883 357.5979 177.0375 358.0411 348.2758 0.1167 2.8430 10.5039 0.0542 357.0244 355.1911 2.8938 0.7722 3.4996 2.9955 339.5821 357.2714 15.0180 320.6991 59.9521 337.4035 8.8374 357.3511 326.7252 89.6036 355.3830 345.9068 27.8672 355.8997 343.5008 45.7617 44.4465 2.3203 339.7085 354.1534 31.7733 269.4518 355.0541 7.7161 356.1676 2.9502 1.2977 357.9623 8.0564 3.0487 355.0701 350.6895 17.0026 358.8204 5.9189 10.2794 6.3628 6.5389 7.6679 349.9815 343.1134 314.7114 
-19.2690 96.9605 176.8319 358.4893 357.5948 177.0069 358.0419 348.2707 0.1153 2.8553 10.5244 0.0501 357.0372 355.1545 2.9175 0.7714 3.5482 3.0197 339.5914 357.2927 14.9883 320.6080 59.9145 337.5078 8.7934 357.3557 326.6818 89.7909 355.3830 345.9399 27.8440 355.8811 343.4916 45.7801 44.4798 2.3462 339.6420 354.1471 31.7388 269.4658 355.0031 7.6650 356.1546 2.9602 1.2878 357.9591 8.0457 3.0655 355.0964 350.6819 17.0209 358.8048 5.9166 10.3025 6.3658 6.5372 7.6620 349.9866 343.1070 314.7197 
-19.2867 96.9610 176.8255 358.4927 357.5899 176.9667 358.0519 348.2644 0.1190 2.8576 10.5558 0.0522 357.0882 355.0810 2.9411 0.7079 3.6426 3.0438 339.5969 357.2783 15.0003 320.6550 59.9444 337.4568 8.8443 357.3188 326.6807 89.7214 355.3912 345.9558 27.8331 355.8717 343.4883 45.7840 44.4983 2.3478 339.6424 354.1638 31.7505 269.4743 355.0426 7.5869 356.1375 2.9650 1.2925 357.9647 8.0424 3.0926 355.0857 350.6746 17.0409 358.7963 5.9027 10.3234 6.3594 6.5503 7.6443 349.9562 343.1718 314.7729 
-19.3051 96.9594 176.8169 358.4988 357.5858 176.9336 358.0675 348.2527 0.1211 2.8538 10.5965 0.0521 357.1161 355.0135 2.9594 0.6763 3.7239 3.0629 339.6214 357.2806 15.0064 320.6593 59.9590 337.4248 8.8593 357.3434 326.6861 89.6102 355.3843 345.9405 27.8283 355.8857 343.4868 45.7923 44.4900 2.3501 339.6665 354.1610 31.7632 269.4501 355.0389 7.6146 356.1348 2.9807 1.2470 357.9426 8.0192 3.1333 355.1020 350.6697 17.0662 358.7833 5.9005 10.3605 6.3660 6.5476 7.6453 349.9907 343.1221 314.7558 
-19.3239 96.9598 176.8068 358.4930 357.5865 176.8923 358.0587 348.2486 0.1254 2.8698 10.6237 0.0575 357.1374 354.9728 2.9888 0.6654 3.7828 3.0933 339.6200 357.3020 15.0211 320.7240 59.9598 337.3409 8.8090 357.3477 326.7050 89.6408 355.3839 345.9192 27.8025 355.8744 343.4869 45.8227 44.5426 2.3541 339.6093 354.1487 31.7304 269.4708 355.0090 7.5501 356.1136 3.0033 1.1984 357.9311 7.9904 3.2158 355.1135 350.6685 17.0726 358.7618 5.8996 10.3616 6.3584 6.5507 7.6591 350.0181 343.0914 314.7714 
-19.3447 96.9607 176.7976 358.4915 357.5770 176.8621 358.0757 348.2321 0.1221 2.8559 10.6669 0.0496 357.1895 354.8812 3.0068 0.5981 3.9066 3.1129 339.6319 357.2841 15.0435 320.8210 60.0037 337.2242 8.8792 357.3331 326.7303 89.5009 355.3597 345.9105 27.8159 355.8920 343.4717 45.7756 44.5474 2.3970 339.6757 354.1622 31.7213 269.4898 354.9968 7.6564 356.0972 3.0101 1.1317 357.9142 7.9731 3.2813 355.1160 350.6622 17.1058 358.7362 5.8887 10.3930 6.3738 6.5535 7.6661 350.0087 343.0907 314.7650 
-19.3639 96.9605 176.7909 358.4892 357.5692 176.8225 358.0690 348.2543 0.1309 2.8759 10.6396 0.0622 357.1884 354.8931 3.0314 0.6085 3.9285 3.1361 339.6278 357.2925 15.0477 320.8008 59.9954 337.2488 8.8153 357.3499 326.7095 89.6451 355.3972 345.9541 27.8009 355.8667 343.4621 45.7740 44.5896 2.3987 339.6269 354.1594 31.6971 269.5752 354.9952 7.6305 356.0790 3.0311 1.0090 357.8930 7.9214 3.4467 355.1357 350.6741 17.1031 358.7188 5.8700 10.4234 6.3734 6.5703 7.6569 350.0263 343.0689 314.7752 
-19.3860 96.9594 176.7839 358.4873 357.5593 176.7871 358.0657 348.2782 0.1397 2.8922 10.6071 0.0681 357.2311 354.8821 3.0570 0.5723 3.9858 3.1613 339.6300 357.2742 15.0641 320.8273 60.0358 337.1976 8.8486 357.3514 326.7492 89.5193 355.3698 345.9116 27.7865 355.8875 343.4573 45.8075 44.5577 2.3544 339.6787 354.1760 31.7080 269.4951 354.9992 7.6487 356.0644 3.1067 0.5003 357.8063 7.7506 3.9682 355.2154 350.7360 17.1261 358.6942 5.8540 10.4362 6.3791 6.5785 7.6493 350.0491 343.0509 314.8046 
-19.4076 96.9583 176.7750 358.4820 357.5470 176.7508 358.0784 348.2685 0.1368 2.8740 10.6317 0.0635 357.2726 354.8279 3.0818 0.5478 4.0703 3.1865 339.6512 357.2632 15.0701 320.8340 60.0392 337.1840 8.8335 357.3500 326.7522 89.4343 355.3200 345.7862 27.7792 355.8819 343.4557 45.8267 44.5773 2.3629 339.6480 354.1765 31.6880 269.4549 354.9860 7.5638 356.0464 3.1152 0.3962 357.7799 7.7264 4.0504 355.1991 350.7058 17.1758 358.6646 5.8362 10.4821 6.3920 6.5851 7.6395 350.0722 343.0193 314.8052 
-19.4271 96.9559 176.7671 358.4856 357.5367 176.7143 358.1015 348.2742 0.1258 2.8562 10.6384 0.0528 357.2594 354.8140 3.1164 0.5949 4.0955 3.2203 339.6612 357.2770 15.0983 320.9032 60.0365 337.1068 8.7852 357.3894 326.7659 89.4623 355.2918 345.7946 27.7903 355.8973 343.4825 45.8166 44.5673 2.3405 339.7030 354.1948 31.7113 269.3274 354.9060 7.3320 356.0366 3.1221 0.3160 357.7643 7.7078 4.1280 355.0949 350.6525 17.1998 358.6466 5.8200 10.5116 6.4000 6.5944 7.6438 350.2340 342.9104 314.8194 
-19.4500 96.9546 176.7571 358.4783 357.5243 176.6720 358.1494 348.2791 0.1068 2.7922 10.6392 0.0400 357.2478 354.7961 3.1652 0.6423 4.1331 3.2682 339.6891 357.2744 15.1262 320.8797 60.0276 337.1166 8.8191 357.3802 326.7232 89.8662 355.3756 346.0557 27.8217 355.8774 343.5493 45.8281 44.5541 2.2640 339.6938 354.1864 31.7203 269.3457 354.8852 7.3143 356.0126 3.1219 0.2063 357.7399 7.7015 4.2323 355.1381 350.6228 17.2389 358.6130 5.7903 10.5352 6.4169 6.6247 7.6489 350.6357 342.6477 314.8510 
-19.4721 96.9513 176.7472 358.4793 357.5061 176.6480 358.1945 348.2815 0.0897 2.7440 10.6360 0.0171 357.2313 354.7830 3.2184 0.6822 4.1719 3.3211 339.7005 357.2798 15.1438 320.8785 60.0178 337.1406 8.8159 357.3620 326.5769 91.1135 355.7008 346.8130 27.8458 355.9064 343.5815 45.8012 44.5309 2.2479 339.7658 354.1949 31.7438 269.3210 354.8954 7.3505 356.0008 3.0997 0.0949 357.7136 7.7254 4.2868 355.1107 350.5542 17.2993 358.5892 5.7674 10.5532 6.4320 6.6448 7.6627 350.1062 342.9161 314.8082 
-19.4946 96.9450 176.7412 358.4815 357.4818 176.6161 358.2409 348.2860 0.0727 2.6951 10.6288 0.0049 357.2154 354.7707 3.2733 0.7368 4.2010 3.3756 339.7159 357.2712 15.1529 320.8424 59.9906 337.1931 8.8221 357.3417 326.5579 91.0233 355.6918 346.7674 27.8702 355.9144 343.6265 45.7847 44.4909 2.2256 339.7747 354.1973 31.7630 269.3202 354.9021 7.3367 355.9892 3.0588 359.9788 357.6852 7.7714 4.3549 354.8892 350.4621 17.3750 358.5662 5.7215 10.5726 6.4543 6.6905 7.6730 350.0992 342.8684 314.7981 
-19.5189 96.9416 176.7341 358.4752 357.4502 176.5820 358.2681 348.2739 0.0660 2.6632 10.6403 359.9982 357.1926 354.7532 3.3188 0.7905 4.2222 3.4198 339.7267 357.2719 15.1811 320.8521 59.9796 337.1871 8.8130 357.3405 326.5299 91.0295 355.6906 346.7807 27.8724 355.8902 343.6620 45.7901 44.5057 2.1972 339.7502 354.1733 31.7489 269.3401 354.8916 7.3439 355.9655 2.9939 359.8699 357.6609 7.8456 4.4323 355.0078 350.4200 17.4325 358.5307 5.6673 10.6256 6.4831 6.7288 7.6771 350.0946 342.8261 314.7686 
-19.5440 96.9374 176.7239 358.4668 357.4298 176.5533 358.2909 348.2778 0.0568 2.6315 10.6494 359.9837 357.2007 354.7100 3.3515 0.7948 4.2774 3.4522 339.7674 357.2691 15.2059 320.7900 59.9914 337.2182 8.8671 357.3284 326.4937 91.0518 355.7025 346.8442 27.8805 355.9196 343.6765 45.7771 44.4911 2.1876 339.8098 354.1850 31.7762 269.3204 354.9258 7.3581 355.9394 2.9263 359.7234 357.6286 7.9475 4.5421 355.0788 350.3575 17.4896 358.4966 5.6320 10.6673 6.4986 6.7675 7.6950 350.0980 342.7829 314.7467 
-19.5707 96.9326 176.7149 358.4591 357.4054 176.5295 358.2721 348.3273 0.0673 2.6620 10.5734 359.9999 357.1823 354.7369 3.3669 0.8211 4.2833 3.4669 339.7724 357.2728 15.1938 320.6299 59.9758 337.3948 8.8661 357.3267 326.4384 90.9719 355.7063 346.7686 27.8515 355.9300 343.6619 45.7938 44.4956 2.1722 339.7786 354.1768 31.7694 269.3377 354.9176 7.3271 355.9089 2.8343 359.5489 357.6029 8.0842 4.6489 355.1541 350.2794 17.5568 358.4661 5.5901 10.6913 6.5156 6.8044 7.6988 350.0921 342.7403 314.7247 
-19.5992 96.9278 176.7027 358.4493 357.3829 176.5083 358.2767 348.3281 0.0658 2.6512 10.5988 359.9990 357.2133 354.6846 3.3709 0.8138 4.3256 3.4699 339.7921 357.2783 15.1789 320.5659 59.9181 337.4530 8.8584 357.3146 326.3746 90.9739 355.7257 346.7400 27.8388 355.9216 343.6506 45.7986 44.4721 2.1734 339.7567 354.1838 31.7791 269.4048 354.9580 7.3702 355.8795 2.7459 359.3559 357.5657 8.2251 4.7218 355.2750 350.1960 17.6824 358.4259 5.5494 10.7317 6.5472 6.8446 7.6917 350.0711 342.6985 314.7033 
-19.6319 96.9246 176.6896 358.4275 357.3547 176.4897 358.2717 348.3237 0.0658 2.6466 10.6239 359.9981 357.1984 354.6496 3.3815 0.8551 4.3336 3.4810 339.8056 357.2820 15.1590 320.4653 59.8473 337.5647 8.8512 357.3155 326.2991 90.9165 355.7216 346.6853 27.8514 355.9308 343.6827 45.7542 44.3953 2.1391 339.8251 354.1922 31.8198 269.4183 355.0245 7.5478 355.8282 2.6341 359.1559 357.5382 8.3947 4.8211 355.3485 350.0998 17.7840 358.3711 5.5075 10.7592 6.5707 6.8869 7.7012 350.1411 342.5990 314.6903 
-19.6681 96.9202 176.6783 358.4041 357.3184 176.4839 358.2654 348.3238 0.0630 2.6446 10.6398 359.9922 357.1728 354.6109 3.3891 0.9019 4.3406 3.4887 339.8177 357.2895 15.1305 320.3573 59.7832 337.6958 8.8370 357.3139 326.2069 90.9328 355.7183 346.6311 27.8234 355.9251 343.6810 45.7598 44.3783 2.1372 339.8091 354.1922 31.8240 269.4528 355.0041 7.5249 355.7717 2.4852 358.9586 357.5165 8.6132 4.8784 355.4845 349.9982 17.9105 358.3086 5.4587 10.7673 6.6107 6.9205 7.6935 350.1863 342.5179 314.6816 
